<?xml version="1.0" encoding="UTF-8" standalone="no"?>
<!DOCTYPE svg PUBLIC "-//W3C//DTD SVG 1.1//EN" "http://www.w3.org/Graphics/SVG/1.1/DTD/svg11.dtd">
<svg width="100%" height="100%" viewBox="0 0 166 166" version="1.1" xmlns="http://www.w3.org/2000/svg" xmlns:xlink="http://www.w3.org/1999/xlink" xml:space="preserve" xmlns:serif="http://www.serif.com/" style="fill-rule:evenodd;clip-rule:evenodd;stroke-linejoin:round;stroke-miterlimit:2;">
    <g transform="matrix(1,0,0,1,-700.883,-617.261)">
        <g id="Lock" transform="matrix(1,0,0,1,-90.3936,-540.157)">
            <g transform="matrix(1,0,0,1,449.699,840.878)">
                <rect x="341.577" y="316.539" width="165.479" height="165.479" style="fill:url(#_Linear1);"/>
            </g>
            <g id="Lock1" serif:id="Lock" transform="matrix(0.251559,0,0,0.251559,809.617,1175.76)">
                <path d="M437.333,192L405.333,192L405.333,149.333C405.333,66.99 338.344,0 256,0C173.656,0 106.667,66.99 106.667,149.333L106.667,192L74.667,192C68.771,192 64,196.771 64,202.667L64,469.334C64,492.865 83.135,512 106.667,512L405.334,512C428.865,512 448,492.865 448,469.333L448,202.667C448,196.771 443.229,192 437.333,192ZM287.938,414.823C288.271,417.833 287.303,420.854 285.282,423.115C283.261,425.375 280.365,426.667 277.334,426.667L234.667,426.667C231.636,426.667 228.74,425.375 226.719,423.115C224.698,420.855 223.729,417.834 224.063,414.823L230.792,354.313C219.865,346.365 213.334,333.792 213.334,320C213.334,296.469 232.469,277.333 256.001,277.333C279.533,277.333 298.668,296.468 298.668,320C298.668,333.792 292.137,346.365 281.21,354.313L287.938,414.823ZM341.333,192L170.667,192L170.667,149.333C170.667,102.281 208.948,64 256,64C303.052,64 341.333,102.281 341.333,149.333L341.333,192Z" style="fill:url(#_Linear2);fill-rule:nonzero;"/>
            </g>
        </g>
    </g>
    <defs>
        <linearGradient id="_Linear1" x1="0" y1="0" x2="1" y2="0" gradientUnits="userSpaceOnUse" gradientTransform="matrix(162.007,160.85,-160.85,162.007,343.313,318.854)"><stop offset="0" style="stop-color:white;stop-opacity:0.5"/><stop offset="1" style="stop-color:rgb(172,172,172);stop-opacity:0.25"/></linearGradient>
        <linearGradient id="_Linear2" x1="0" y1="0" x2="1" y2="0" gradientUnits="userSpaceOnUse" gradientTransform="matrix(312.316,459.499,-459.499,312.316,113.621,26.1343)"><stop offset="0" style="stop-color:rgb(84,195,241);stop-opacity:1"/><stop offset="1" style="stop-color:rgb(0,151,224);stop-opacity:1"/></linearGradient>
    </defs>
</svg>
