<?xml version="1.0" encoding="UTF-8" standalone="no"?>
<!DOCTYPE svg PUBLIC "-//W3C//DTD SVG 1.1//EN" "http://www.w3.org/Graphics/SVG/1.1/DTD/svg11.dtd">
<svg width="100%" height="100%" viewBox="0 0 166 166" version="1.1" xmlns="http://www.w3.org/2000/svg" xmlns:xlink="http://www.w3.org/1999/xlink" xml:space="preserve" xmlns:serif="http://www.serif.com/" style="fill-rule:evenodd;clip-rule:evenodd;stroke-linejoin:round;stroke-miterlimit:2;">
    <g transform="matrix(1,0,0,1,-176.159,-410.017)">
        <g id="DotNetLib" transform="matrix(1,0,0,1,-615.118,-747.401)">
            <g transform="matrix(1,0,0,1,449.699,840.878)">
                <rect x="341.577" y="316.539" width="165.479" height="165.479" style="fill:url(#_Linear1);"/>
            </g>
            <g id="C-" serif:id="C#" transform="matrix(0.406504,0,0,0.406504,817.918,1169.43)">
                <path d="M240,348L36,348C16.117,348 0,331.883 0,312L0,36C0,16.117 16.117,0 36,0L204,0L276,72L276,312C276,331.883 259.883,348 240,348Z" style="fill:url(#_Linear2);fill-rule:nonzero;"/>
                <g>
                    <path d="M162,192L84,192C80.688,192 78,189.312 78,186L78,144L90,144L90,180L162,180L162,192Z" style="fill:url(#_Linear3);fill-rule:nonzero;"/>
                    <path d="M156,132L228,132.001L228,204.001L156,204.001L156,132Z" style="fill:url(#_Linear4);fill-rule:nonzero;"/>
                    <path d="M48,84L120,84.001L120,156.001L48,156.001L48,84Z" style="fill:url(#_Linear5);fill-rule:nonzero;"/>
                </g>
                <g>
                    <path d="M156,132L228,132.001L228,156.001L156,156.001L156,132Z" style="fill:url(#_Linear6);fill-rule:nonzero;"/>
                    <path d="M48,84L120,84.001L120,108.001L48,108.001L48,84Z" style="fill:url(#_Linear7);fill-rule:nonzero;"/>
                    <path d="M0,252L276,252L276,312C276,331.883 259.883,348 240,348L36,348C16.117,348 0,331.883 0,312L0,252Z" style="fill:url(#_Linear8);fill-rule:nonzero;"/>
                </g>
                <g>
                    <path d="M210,186L174,186C170.688,186 168,183.312 168,180C168,176.688 170.688,174 174,174L210,174C213.312,174 216,176.688 216,180C216,183.312 213.312,186 210,186Z" style="fill:url(#_Linear9);fill-rule:nonzero;"/>
                    <path d="M102,138L66,138C62.688,138 60,135.312 60,132C60,128.688 62.688,126 66,126L102,126C105.312,126 108,128.688 108,132C108,135.312 105.312,138 102,138Z" style="fill:url(#_Linear10);fill-rule:nonzero;"/>
                </g>
                <path d="M276,72L240,72C220.117,72 204,55.883 204,36L204,0L276,72Z" style="fill:url(#_Linear11);fill-rule:nonzero;"/>
                <g>
                    <path d="M114,282C115.191,282.004 116.367,282.277 117.441,282.793C120.438,284.207 124.016,282.922 125.426,279.926C126.84,276.926 125.555,273.352 122.559,271.938C119.887,270.664 116.961,270.004 114,270C100.766,270 90,283.457 90,300C90,316.543 100.766,330 114,330C116.961,329.996 119.887,329.336 122.559,328.062C125.555,326.648 126.84,323.074 125.426,320.074C124.016,317.078 120.438,315.793 117.441,317.207C116.367,317.723 115.191,317.996 114,318C107.496,318 102,309.758 102,300C102,290.242 107.496,282 114,282Z" style="fill:url(#_Linear12);fill-rule:nonzero;"/>
                    <path d="M186,288C186,284.688 183.312,282 180,282L180,276C180,272.688 177.312,270 174,270C170.688,270 168,272.688 168,276L168,282L156,282L156,276C156,272.688 153.312,270 150,270C146.688,270 144,272.688 144,276L144,282C140.688,282 138,284.688 138,288C138,291.312 140.688,294 144,294L144,306C140.688,306 138,308.688 138,312C138,315.312 140.688,318 144,318L144,324C144,327.312 146.688,330 150,330C153.312,330 156,327.312 156,324L156,318L168,318L168,324C168,327.312 170.688,330 174,330C177.312,330 180,327.312 180,324L180,318C183.312,318 186,315.312 186,312C186,308.688 183.312,306 180,306L180,294C183.312,294 186,291.312 186,288ZM168,306L156,306L156,294L168,294L168,306Z" style="fill:url(#_Linear13);fill-rule:nonzero;"/>
                </g>
            </g>
        </g>
    </g>
    <defs>
        <linearGradient id="_Linear1" x1="0" y1="0" x2="1" y2="0" gradientUnits="userSpaceOnUse" gradientTransform="matrix(162.007,160.85,-160.85,162.007,343.313,318.854)"><stop offset="0" style="stop-color:white;stop-opacity:0.5"/><stop offset="1" style="stop-color:rgb(172,172,172);stop-opacity:0.25"/></linearGradient>
        <linearGradient id="_Linear2" x1="0" y1="0" x2="1" y2="0" gradientUnits="userSpaceOnUse" gradientTransform="matrix(262.664,237.334,-237.334,262.664,10.6056,12.7279)"><stop offset="0" style="stop-color:rgb(84,195,241);stop-opacity:1"/><stop offset="1" style="stop-color:rgb(0,151,224);stop-opacity:1"/></linearGradient>
        <linearGradient id="_Linear3" x1="0" y1="0" x2="1" y2="0" gradientUnits="userSpaceOnUse" gradientTransform="matrix(174.559,88.1055,-88.1055,174.559,50.8038,111.847)"><stop offset="0" style="stop-color:rgb(153,223,252);stop-opacity:1"/><stop offset="1" style="stop-color:rgb(84,195,241);stop-opacity:1"/></linearGradient>
        <linearGradient id="_Linear4" x1="0" y1="0" x2="1" y2="0" gradientUnits="userSpaceOnUse" gradientTransform="matrix(174.559,88.1055,-88.1055,174.559,50.8038,111.847)"><stop offset="0" style="stop-color:rgb(153,223,252);stop-opacity:1"/><stop offset="1" style="stop-color:rgb(84,195,241);stop-opacity:1"/></linearGradient>
        <linearGradient id="_Linear5" x1="0" y1="0" x2="1" y2="0" gradientUnits="userSpaceOnUse" gradientTransform="matrix(174.559,88.1055,-88.1055,174.559,50.8038,111.847)"><stop offset="0" style="stop-color:rgb(153,223,252);stop-opacity:1"/><stop offset="1" style="stop-color:rgb(84,195,241);stop-opacity:1"/></linearGradient>
        <linearGradient id="_Linear6" x1="0" y1="0" x2="1" y2="0" gradientUnits="userSpaceOnUse" gradientTransform="matrix(259.911,243.391,-243.391,259.911,5.09905,90.9215)"><stop offset="0" style="stop-color:rgb(140,140,140);stop-opacity:1"/><stop offset="1" style="stop-color:rgb(76,76,76);stop-opacity:1"/></linearGradient>
        <linearGradient id="_Linear7" x1="0" y1="0" x2="1" y2="0" gradientUnits="userSpaceOnUse" gradientTransform="matrix(259.911,243.391,-243.391,259.911,5.09905,90.9215)"><stop offset="0" style="stop-color:rgb(140,140,140);stop-opacity:1"/><stop offset="1" style="stop-color:rgb(76,76,76);stop-opacity:1"/></linearGradient>
        <linearGradient id="_Linear8" x1="0" y1="0" x2="1" y2="0" gradientUnits="userSpaceOnUse" gradientTransform="matrix(259.911,243.391,-243.391,259.911,5.09905,90.9215)"><stop offset="0" style="stop-color:rgb(140,140,140);stop-opacity:1"/><stop offset="1" style="stop-color:rgb(76,76,76);stop-opacity:1"/></linearGradient>
        <linearGradient id="_Linear9" x1="0" y1="0" x2="1" y2="0" gradientUnits="userSpaceOnUse" gradientTransform="matrix(152.533,55.6166,-55.6166,152.533,61.817,127.816)"><stop offset="0" style="stop-color:white;stop-opacity:1"/><stop offset="1" style="stop-color:rgb(202,202,202);stop-opacity:1"/></linearGradient>
        <linearGradient id="_Linear10" x1="0" y1="0" x2="1" y2="0" gradientUnits="userSpaceOnUse" gradientTransform="matrix(152.533,55.6166,-55.6166,152.533,61.817,127.816)"><stop offset="0" style="stop-color:white;stop-opacity:1"/><stop offset="1" style="stop-color:rgb(202,202,202);stop-opacity:1"/></linearGradient>
        <linearGradient id="_Linear11" x1="0" y1="0" x2="1" y2="0" gradientUnits="userSpaceOnUse" gradientTransform="matrix(69.9337,41.2994,-41.2994,69.9337,204.988,28.1463)"><stop offset="0" style="stop-color:rgb(153,223,252);stop-opacity:1"/><stop offset="1" style="stop-color:rgb(84,195,241);stop-opacity:1"/></linearGradient>
        <linearGradient id="_Linear12" x1="0" y1="0" x2="1" y2="0" gradientUnits="userSpaceOnUse" gradientTransform="matrix(83.1495,45.7047,-45.7047,83.1495,97.6098,279.247)"><stop offset="0" style="stop-color:white;stop-opacity:1"/><stop offset="1" style="stop-color:rgb(202,202,202);stop-opacity:1"/></linearGradient>
        <linearGradient id="_Linear13" x1="0" y1="0" x2="1" y2="0" gradientUnits="userSpaceOnUse" gradientTransform="matrix(83.1495,45.7047,-45.7047,83.1495,97.6098,279.247)"><stop offset="0" style="stop-color:white;stop-opacity:1"/><stop offset="1" style="stop-color:rgb(202,202,202);stop-opacity:1"/></linearGradient>
    </defs>
</svg>
