<?xml version="1.0" encoding="UTF-8" standalone="no"?>
<!DOCTYPE svg PUBLIC "-//W3C//DTD SVG 1.1//EN" "http://www.w3.org/Graphics/SVG/1.1/DTD/svg11.dtd">
<svg width="100%" height="100%" viewBox="0 0 166 166" version="1.1" xmlns="http://www.w3.org/2000/svg" xmlns:xlink="http://www.w3.org/1999/xlink" xml:space="preserve" xmlns:serif="http://www.serif.com/" style="fill-rule:evenodd;clip-rule:evenodd;stroke-linejoin:round;stroke-miterlimit:2;">
    <g transform="matrix(1,0,0,1,-1086.18,-621.229)">
        <g id="Serilog" transform="matrix(1,0,0,1,294.904,-536.189)">
            <g transform="matrix(1,0,0,1,449.699,840.878)">
                <rect x="341.577" y="316.539" width="165.479" height="165.479" style="fill:url(#_Linear1);"/>
            </g>
            <g id="Thread" transform="matrix(0.509656,0,0,0.509656,806.197,1172.34)">
                <path d="M192.74,69.067C190.705,63.588 184.61,60.8 179.127,62.804C178.884,62.894 154.169,71.734 102.607,72.013C57.153,72.247 22.52,60.912 21.919,60.71C16.363,58.833 10.356,61.823 8.484,67.369C6.612,72.92 9.592,78.94 15.138,80.811C16.66,81.326 52.509,93.233 101.105,93.233C101.641,93.233 102.182,93.233 102.718,93.228C158.615,92.922 185.428,83.097 186.536,82.683C192.004,80.625 194.77,74.543 192.74,69.067Z" style="fill:url(#_Linear2);fill-rule:nonzero;"/>
                <path d="M192.74,99.243C190.705,93.764 184.61,90.971 179.127,92.98C178.884,93.071 154.169,101.91 102.607,102.192C57.153,102.43 22.52,91.087 21.919,90.885C16.363,89.013 10.356,91.998 8.484,97.547C6.612,103.098 9.592,109.115 15.138,110.986C16.66,111.502 52.509,123.411 101.105,123.411C101.641,123.411 102.182,123.411 102.718,123.406C158.615,123.098 185.428,113.272 186.536,112.858C192.004,110.795 194.77,104.719 192.74,99.243Z" style="fill:url(#_Linear3);fill-rule:nonzero;"/>
                <path d="M179.126,123.15C178.883,123.24 154.168,132.08 102.606,132.356C57.059,132.429 22.524,121.252 21.918,121.05C16.362,119.178 10.355,122.163 8.483,127.709C6.611,133.262 9.591,139.277 15.137,141.146C16.659,141.669 52.502,153.568 101.089,153.568L102.717,153.568C158.614,153.263 185.427,143.44 186.535,143.015C192.003,140.964 194.768,134.891 192.738,129.412C190.705,123.935 184.61,121.146 179.126,123.15Z" style="fill:url(#_Linear4);fill-rule:nonzero;"/>
                <path d="M15.144,204.76C16.666,205.278 52.509,217.182 101.096,217.182C101.637,217.182 102.178,217.182 102.724,217.177C158.622,216.877 185.429,207.049 186.548,206.635C192.011,204.578 194.771,198.505 192.74,193.027C190.711,187.553 184.621,184.773 179.133,186.761C178.884,186.854 154.174,195.688 102.613,195.968C102.113,195.973 101.626,195.973 101.132,195.973C56.354,195.973 22.52,184.861 21.925,184.664C16.369,182.794 10.362,185.782 8.49,191.322C6.618,196.879 9.598,202.886 15.144,204.76Z" style="fill:url(#_Linear5);fill-rule:nonzero;"/>
                <path d="M0.005,32.483C0.005,38.339 4.002,45.703 9.426,47.914C22.247,53.139 49.668,60.714 100.675,60.572C150.725,60.715 178.686,52.963 191.828,47.741C197.27,45.576 201.346,38.345 201.346,32.489L201.346,20.041C201.346,18.715 201.097,17.576 200.694,16.6C200.694,16.582 200.715,16.572 200.715,16.556C200.715,9.063 155.924,2.99 100.671,2.99C45.42,2.989 0.632,9.063 0.632,16.556C0.632,16.567 0.647,16.59 0.647,16.6C0.243,17.576 0,18.71 0,20.036L0,32.484L0.005,32.484L0.005,32.483ZM100.675,12.056C120.922,12.056 137.336,15.285 137.336,19.256C137.336,23.238 120.921,26.456 100.675,26.456C80.421,26.456 64.014,23.238 64.014,19.256C64.015,15.285 80.421,12.056 100.675,12.056Z" style="fill:url(#_Linear6);fill-rule:nonzero;"/>
                <path d="M201.346,235.057L201.346,222.609C201.346,216.753 197.105,214.164 191.621,216.23C177.484,221.538 147.7,230.05 100.675,230.806C53.655,230.05 23.865,221.537 9.729,216.23C4.246,214.164 0.005,216.752 0.005,222.609L0.005,235.057C0.005,240.913 4.002,248.277 9.426,250.483C22.247,255.703 49.668,263.284 100.675,263.144C150.725,263.284 178.686,255.537 191.828,250.307C197.276,248.143 201.346,240.913 201.346,235.057Z" style="fill:url(#_Linear7);fill-rule:nonzero;"/>
                <path d="M213.592,215.132C214.964,243.306 247.266,259.638 250.942,261.408C252.423,262.123 253.987,262.454 255.52,262.454C259.465,262.454 263.246,260.248 265.073,256.463C267.626,251.202 265.421,244.859 260.159,242.307C253.314,238.972 235.419,227.41 234.776,214.102C232.167,160.322 201.999,152.254 184.254,152.223L184.238,152.223C182.747,152.223 181.328,152.544 180.044,153.093C179.733,153.176 179.428,153.217 179.127,153.325C178.884,153.414 154.169,162.258 102.607,162.532C57.06,163.004 22.525,151.426 21.919,151.228C16.363,149.359 10.356,152.346 8.484,157.887C6.612,163.438 9.592,169.454 15.138,171.319C16.66,171.838 52.503,183.747 101.09,183.747C101.631,183.747 102.173,183.747 102.718,183.742C154.438,183.457 181.208,175.037 185.806,173.453C193.734,173.645 211.708,176.332 213.592,215.132Z" style="fill:url(#_Linear8);fill-rule:nonzero;"/>
            </g>
        </g>
    </g>
    <defs>
        <linearGradient id="_Linear1" x1="0" y1="0" x2="1" y2="0" gradientUnits="userSpaceOnUse" gradientTransform="matrix(162.007,160.85,-160.85,162.007,343.313,318.854)"><stop offset="0" style="stop-color:white;stop-opacity:0.5"/><stop offset="1" style="stop-color:rgb(172,172,172);stop-opacity:0.25"/></linearGradient>
        <linearGradient id="_Linear2" x1="0" y1="0" x2="1" y2="0" gradientUnits="userSpaceOnUse" gradientTransform="matrix(250.389,247.668,-247.668,250.389,9.88388,9.07343)"><stop offset="0" style="stop-color:rgb(84,195,241);stop-opacity:1"/><stop offset="1" style="stop-color:rgb(0,151,224);stop-opacity:1"/></linearGradient>
        <linearGradient id="_Linear3" x1="0" y1="0" x2="1" y2="0" gradientUnits="userSpaceOnUse" gradientTransform="matrix(250.389,247.668,-247.668,250.389,9.88388,9.07343)"><stop offset="0" style="stop-color:rgb(84,195,241);stop-opacity:1"/><stop offset="1" style="stop-color:rgb(0,151,224);stop-opacity:1"/></linearGradient>
        <linearGradient id="_Linear4" x1="0" y1="0" x2="1" y2="0" gradientUnits="userSpaceOnUse" gradientTransform="matrix(250.389,247.668,-247.668,250.389,9.88388,9.07343)"><stop offset="0" style="stop-color:rgb(84,195,241);stop-opacity:1"/><stop offset="1" style="stop-color:rgb(0,151,224);stop-opacity:1"/></linearGradient>
        <linearGradient id="_Linear5" x1="0" y1="0" x2="1" y2="0" gradientUnits="userSpaceOnUse" gradientTransform="matrix(250.389,247.668,-247.668,250.389,9.88388,9.07343)"><stop offset="0" style="stop-color:rgb(84,195,241);stop-opacity:1"/><stop offset="1" style="stop-color:rgb(0,151,224);stop-opacity:1"/></linearGradient>
        <linearGradient id="_Linear6" x1="0" y1="0" x2="1" y2="0" gradientUnits="userSpaceOnUse" gradientTransform="matrix(250.389,247.668,-247.668,250.389,9.88388,9.07343)"><stop offset="0" style="stop-color:rgb(84,195,241);stop-opacity:1"/><stop offset="1" style="stop-color:rgb(0,151,224);stop-opacity:1"/></linearGradient>
        <linearGradient id="_Linear7" x1="0" y1="0" x2="1" y2="0" gradientUnits="userSpaceOnUse" gradientTransform="matrix(250.389,247.668,-247.668,250.389,9.88388,9.07343)"><stop offset="0" style="stop-color:rgb(84,195,241);stop-opacity:1"/><stop offset="1" style="stop-color:rgb(0,151,224);stop-opacity:1"/></linearGradient>
        <linearGradient id="_Linear8" x1="0" y1="0" x2="1" y2="0" gradientUnits="userSpaceOnUse" gradientTransform="matrix(250.389,247.668,-247.668,250.389,9.88388,9.07343)"><stop offset="0" style="stop-color:rgb(84,195,241);stop-opacity:1"/><stop offset="1" style="stop-color:rgb(0,151,224);stop-opacity:1"/></linearGradient>
    </defs>
</svg>
